<?xml version="1.0" encoding="UTF-8"?>
<svg width="145" height="584"><g transform="translate(-316,-201)"><path d="m346,298 17,-27 -11,-43 c-5,-34 78,-33 69,-1 l-10,45 18,27 0,164 -82,0 0,-164z" style="fill:#b9b9b9;"/><path d="m 22,256 98,0" transform="translate(316,201)" style="fill:none;stroke:#808080;stroke-width:10;stroke-linecap:round;"/><path d="m 332,463 112,0 c7.4,0 13,6 13,13 l0,292 c0,7.4 -6,13 -13,13 l-112.06291,0 c-7.4,0 -13,-6 -13,-13 l0,-292 c0,-7.4 6,-13 13,-13z" style="fill:#0;stroke:#0;stroke-width:6" /><path d="m 365,271 44,0 m-55,-45 66,0" style="fill:none;stroke:#d8d8d8;stroke-width:3;stroke-linecap:round;"/><path d="m 350,359 74,0 m-74,-54 74,0" style="fill:none;stroke:#0;stroke-width:7;stroke-linecap:round"/></g></svg>
